<?xml version="1.0" encoding="utf-8"?>
<!-- Generator: Adobe Illustrator 17.0.0, SVG Export Plug-In . SVG Version: 6.00 Build 0)  -->
<!DOCTYPE svg PUBLIC "-//W3C//DTD SVG 1.1//EN" "http://www.w3.org/Graphics/SVG/1.1/DTD/svg11.dtd">
<svg version="1.1"
	xmlns="http://www.w3.org/2000/svg"
	xmlns:xlink="http://www.w3.org/1999/xlink" x="0px" y="0px" width="945px" height="609px" viewBox="0 0 945 609" enable-background="new 0 0 945 609" xml:space="preserve">
	<g id="Layer_4">
	</g>
	<g id="Layer_1">
		<g>
			<g>
				<defs>
					<rect id="SVGID_1_" x="-126.846" y="-34.954" width="1199.533" height="848.155"/>
				</defs>
				<clipPath id="SVGID_2_">
					<use xlink:href="#SVGID_1_" overflow="visible"/>
				</clipPath>
				<path clip-path="url(#SVGID_2_)" fill="#266A35" d="M592.908,265.492c-9.74,10.368-16.691,23.616-19.347,38.672
				c-2.655,15.057-0.653,29.883,4.953,42.958l-0.016,0.026c-14.127,1.683-27.968,7.362-39.68,17.19
				c-11.71,9.828-19.709,22.471-23.817,36.091l-0.028,0.012c-11.904-7.793-26.158-12.339-41.447-12.339
				c-15.287,0-29.541,4.546-41.442,12.339l-0.031-0.012c-4.11-13.62-12.107-26.263-23.818-36.091
				c-11.711-9.828-25.552-15.507-39.679-17.19l-0.015-0.026c5.607-13.075,7.607-27.901,4.953-42.958
				c-2.655-15.056-9.607-28.304-19.347-38.672l0.006-0.031c12.698-6.412,23.761-16.482,31.408-29.723
				c7.644-13.241,10.834-27.857,10.038-42.061l0.022-0.021c13.85,3.251,28.799,2.646,43.167-2.583
				c14.366-5.227,26.204-14.374,34.725-25.768h0.031c8.52,11.394,20.359,20.538,34.727,25.768
				c14.365,5.229,29.314,5.834,43.163,2.583l0.023,0.021c-0.796,14.203,2.45,28.787,10.037,42.061
				c7.527,13.163,17.966,22.837,31.407,29.723L592.908,265.492z"/>
				<path clip-path="url(#SVGID_2_)" fill="#FFFFFF" d="M502.025,364.356c-9.2-2.646-18.782-4.005-28.507-4.005
				c-9.726,0-19.304,1.359-28.507,4.005c-5.348-7.942-11.814-15.141-19.261-21.39c-7.448-6.252-15.664-11.368-24.413-15.257
				c1.01-9.521,0.684-19.192-1.004-28.769c-1.689-9.576-4.691-18.774-8.894-27.377c6.892-6.646,12.857-14.263,17.722-22.683
				c4.862-8.422,8.476-17.402,10.784-26.693c9.591-0.66,19.034-2.665,28.156-5.984c9.138-3.326,17.281-7.72,25.022-13.352
				c7.741,5.633,16.678,10.027,25.814,13.352c9.128,3.323,18.581,5.329,28.183,5.987c2.302,9.225,5.885,18.165,10.698,26.586
				c4.89,8.553,10.822,16.178,17.756,22.838c-4.19,8.588-7.183,17.769-8.869,27.328c-1.688,9.575-2.016,19.247-1.007,28.768
				c-8.747,3.889-16.961,9.004-24.408,15.257C513.841,349.216,507.373,356.415,502.025,364.356"/>
				<path clip-path="url(#SVGID_2_)" fill="#6DBD45" d="M557.275,374.713c2.595,3.091,2.239,7.66-0.794,10.203
				c-3.031,2.544-7.593,2.102-10.185-0.989c-2.593-3.09-2.237-7.658,0.795-10.203C550.122,371.18,554.684,371.623,557.275,374.713" />
				<path clip-path="url(#SVGID_2_)" fill="#6DBD45" d="M594.535,300.515c3.975,0.701,6.637,4.428,5.951,8.327
				c-0.689,3.898-4.466,6.49-8.44,5.791c-3.973-0.702-6.638-4.429-5.949-8.327C586.783,302.408,590.563,299.815,594.535,300.515"/>
				<path clip-path="url(#SVGID_2_)" fill="#6DBD45" d="M575.318,219.709c3.494-2.018,7.933-0.873,9.911,2.555
				c1.979,3.428,0.752,7.842-2.745,9.859c-3.492,2.018-7.93,0.874-9.908-2.555C570.598,226.14,571.824,221.727,575.318,219.709"/>
				<path clip-path="url(#SVGID_2_)" fill="#6DBD45" d="M508.643,170.175c1.381-3.791,5.515-5.768,9.236-4.414
				c3.717,1.354,5.615,5.525,4.235,9.317c-1.379,3.79-5.515,5.767-9.234,4.414C509.161,178.139,507.264,173.967,508.643,170.175"/>
				<path clip-path="url(#SVGID_2_)" fill="#6DBD45" d="M425.732,175.078c-1.382-3.791,0.516-7.963,4.235-9.316
				c3.721-1.354,7.855,0.623,9.235,4.414c1.38,3.792-0.518,7.964-4.236,9.317C431.246,180.846,427.112,178.869,425.732,175.078"/>
				<path clip-path="url(#SVGID_2_)" fill="#6DBD45" d="M365.361,232.124c-3.494-2.017-4.722-6.431-2.743-9.859
				c1.979-3.429,6.417-4.572,9.909-2.555c3.495,2.017,4.725,6.432,2.745,9.86C373.293,232.998,368.854,234.143,365.361,232.124"/>
				<path clip-path="url(#SVGID_2_)" fill="#6DBD45" d="M355.897,314.615c-3.974,0.701-7.751-1.892-8.438-5.789
				c-0.689-3.899,1.977-7.626,5.951-8.327c3.974-0.701,7.751,1.892,8.437,5.791C362.534,310.187,359.872,313.914,355.897,314.615"/>
				<path clip-path="url(#SVGID_2_)" fill="#6DBD45" d="M401.501,383.984c-2.593,3.092-7.153,3.534-10.187,0.989
				c-3.033-2.542-3.388-7.112-0.794-10.202c2.592-3.091,7.153-3.534,10.187-0.989C403.74,376.324,404.094,380.896,401.501,383.984" />
				<path clip-path="url(#SVGID_2_)" fill="#6DBD45" d="M481.091,407.554c0,4.034-3.21,7.305-7.167,7.305
				c-3.96,0-7.169-3.271-7.169-7.305c0-4.035,3.208-7.306,7.169-7.306C477.881,400.248,481.091,403.519,481.091,407.554"/>

				<line clip-path="url(#SVGID_2_)" fill="none" stroke="#FFFFFF" stroke-width="1.5" stroke-miterlimit="10" x1="525.133" y1="225.527" x2="552.714" y2="192.591"/>

				<line clip-path="url(#SVGID_2_)" fill="none" stroke="#FFFFFF" stroke-width="1.5" stroke-miterlimit="10" x1="473.526" y1="206.627" x2="473.526" y2="161.096"/>

				<line clip-path="url(#SVGID_2_)" fill="none" stroke="#FFFFFF" stroke-width="1.5" stroke-miterlimit="10" x1="395.637" y1="193.71" x2="422.343" y2="225.003"/>

				<line clip-path="url(#SVGID_2_)" fill="none" stroke="#FFFFFF" stroke-width="1.5" stroke-miterlimit="10" x1="352.692" y1="265.239" x2="393.296" y2="272.306"/>

				<line clip-path="url(#SVGID_2_)" fill="none" stroke="#FFFFFF" stroke-width="1.5" stroke-miterlimit="10" x1="403.754" y1="327.03" x2="368.56" y2="347.088"/>

				<line clip-path="url(#SVGID_2_)" fill="none" stroke="#FFFFFF" stroke-width="1.5" stroke-miterlimit="10" x1="446.419" y1="362.277" x2="432.098" y2="400.412"/>

				<line clip-path="url(#SVGID_2_)" fill="none" stroke="#FFFFFF" stroke-width="1.5" stroke-miterlimit="10" x1="501.392" y1="362.03" x2="514.954" y2="400.412"/>

				<line clip-path="url(#SVGID_2_)" fill="none" stroke="#FFFFFF" stroke-width="1.5" stroke-miterlimit="10" x1="543.162" y1="326.447" x2="578.469" y2="347.099"/>
				<polygon clip-path="url(#SVGID_2_)" fill="#F6E8D7" points="455.722,372.063 457.232,375.124 460.61,375.614 458.166,377.997 
				458.743,381.362 455.722,379.772 452.701,381.362 453.278,377.997 450.835,375.614 454.213,375.124 			"/>
				<polygon clip-path="url(#SVGID_2_)" fill="#F6E8D7" points="492.09,372.063 493.598,375.124 496.977,375.614 494.532,377.997 
				495.109,381.362 492.09,379.772 489.067,381.362 489.645,377.997 487.2,375.614 490.579,375.124 			"/>
				<polygon clip-path="url(#SVGID_2_)" fill="#F6E8D7" points="473.906,370.173 475.415,373.232 478.794,373.725 476.351,376.107 
				476.927,379.472 473.906,377.882 470.885,379.472 471.461,376.107 469.018,373.725 472.396,373.232 			"/>
				<polygon clip-path="url(#SVGID_2_)" fill="#F6E8D7" points="514.847,363.669 517.969,365.042 520.873,363.246 520.531,366.645 
				523.137,368.849 519.801,369.574 518.509,372.733 516.787,369.785 513.384,369.531 515.655,366.984 			"/>
				<polygon clip-path="url(#SVGID_2_)" fill="#F6E8D7" points="542.705,340.292 545.827,341.665 548.73,339.871 548.391,343.267 
				550.994,345.473 547.658,346.198 546.366,349.356 544.646,346.409 541.24,346.156 543.514,343.608 			"/>
				<polygon clip-path="url(#SVGID_2_)" fill="#F6E8D7" points="527.56,350.532 530.683,351.906 533.588,350.11 533.246,353.507 
				535.85,355.713 532.515,356.438 531.222,359.598 529.503,356.649 526.099,356.396 528.369,353.848 			"/>
				<polygon clip-path="url(#SVGID_2_)" fill="#F6E8D7" points="554.307,318.865 557.584,317.909 558.653,314.667 560.577,317.489 
				563.988,317.505 561.899,320.204 562.94,323.455 559.727,322.303 556.956,324.296 557.059,320.884 			"/>
				<polygon clip-path="url(#SVGID_2_)" fill="#F6E8D7" points="560.623,283.052 563.899,282.096 564.969,278.854 566.892,281.675 
				570.305,281.691 568.214,284.391 569.256,287.643 566.042,286.49 563.271,288.482 563.375,285.071 			"/>
				<polygon clip-path="url(#SVGID_2_)" fill="#F6E8D7" points="555.602,300.63 558.881,299.674 559.949,296.433 561.872,299.254 
				565.284,299.27 563.195,301.969 564.236,305.221 561.022,304.069 558.251,306.061 558.355,302.649 			"/>
				<polygon clip-path="url(#SVGID_2_)" fill="#F6E8D7" points="557.024,261.496 558.92,258.658 557.655,255.485 560.941,256.412 
				563.567,254.23 563.7,257.64 566.587,259.462 563.386,260.646 562.544,263.954 560.431,261.274 			"/>
				<polygon clip-path="url(#SVGID_2_)" fill="#F6E8D7" points="538.842,230.002 540.736,227.164 539.472,223.992 542.758,224.919 
				545.384,222.736 545.518,226.146 548.404,227.969 545.203,229.151 544.362,232.46 542.247,229.78 			"/>
				<polygon clip-path="url(#SVGID_2_)" fill="#F6E8D7" points="546.296,246.694 548.19,243.855 546.926,240.684 550.211,241.61 
				552.838,239.429 552.972,242.838 555.858,244.661 552.656,245.843 551.815,249.152 549.701,246.472 			"/>
				<polygon clip-path="url(#SVGID_2_)" fill="#F6E8D7" points="519.316,213.624 518.941,210.232 515.938,208.615 519.048,207.212 
				519.657,203.854 521.953,206.38 525.336,205.92 523.644,208.884 525.126,211.96 521.782,211.265 			"/>
				<polygon clip-path="url(#SVGID_2_)" fill="#F6E8D7" points="485.145,201.187 484.771,197.795 481.764,196.177 484.875,194.774 
				485.484,191.416 487.781,193.942 491.163,193.483 489.473,196.446 490.954,199.522 487.61,198.827 			"/>
				<polygon clip-path="url(#SVGID_2_)" fill="#F6E8D7" points="501.584,209.182 501.21,205.79 498.205,204.173 501.316,202.769 
				501.925,199.411 504.221,201.937 507.604,201.479 505.911,204.442 507.394,207.516 504.05,206.823 			"/>
				<polygon clip-path="url(#SVGID_2_)" fill="#F6E8D7" points="462.861,201.713 460.395,199.354 457.053,200.047 458.534,196.972 
				456.842,194.008 460.224,194.468 462.519,191.941 463.128,195.3 466.24,196.703 463.234,198.32 			"/>
				<polygon clip-path="url(#SVGID_2_)" fill="#F6E8D7" points="428.688,214.151 426.222,211.791 422.879,212.485 424.361,209.41 
				422.669,206.446 426.05,206.905 428.347,204.379 428.955,207.738 432.067,209.141 429.061,210.758 			"/>
				<polygon clip-path="url(#SVGID_2_)" fill="#F6E8D7" points="446.42,209.708 443.955,207.349 440.613,208.042 442.093,204.968 
				440.401,202.004 443.784,202.463 446.078,199.936 446.69,203.295 449.801,204.699 446.793,206.315 			"/>
				<polygon clip-path="url(#SVGID_2_)" fill="#F6E8D7" points="408.88,228.475 405.473,228.252 403.359,230.933 402.518,227.624 
				399.316,226.441 402.203,224.619 402.336,221.21 404.963,223.391 408.249,222.464 406.985,225.636 			"/>
				<polygon clip-path="url(#SVGID_2_)" fill="#F6E8D7" points="390.697,259.968 387.29,259.746 385.176,262.425 384.336,259.118 
				381.133,257.935 384.02,256.113 384.153,252.704 386.779,254.884 390.066,253.958 388.802,257.13 			"/>
				<polygon clip-path="url(#SVGID_2_)" fill="#F6E8D7" points="401.425,245.167 398.019,244.944 395.905,247.624 395.063,244.316 
				391.862,243.133 394.749,241.311 394.882,237.901 397.508,240.083 400.792,239.157 399.529,242.328 			"/>
				<polygon clip-path="url(#SVGID_2_)" fill="#F6E8D7" points="432.085,362.337 428.96,363.71 426.056,361.914 426.398,365.313 
				423.794,367.517 427.13,368.242 428.421,371.401 430.143,368.454 433.547,368.199 431.273,365.651 			"/>
				<polygon clip-path="url(#SVGID_2_)" fill="#F6E8D7" points="404.227,338.961 401.102,340.335 398.199,338.539 398.541,341.935 
				395.936,344.141 399.271,344.867 400.563,348.025 402.285,345.077 405.688,344.824 403.416,342.276 			"/>
				<polygon clip-path="url(#SVGID_2_)" fill="#F6E8D7" points="419.372,349.2 416.247,350.573 413.343,348.778 413.684,352.176 
				411.079,354.381 414.415,355.105 415.708,358.266 417.429,355.317 420.833,355.064 418.56,352.516 			"/>
				<polygon clip-path="url(#SVGID_2_)" fill="#F6E8D7" points="391.844,318.865 388.566,317.909 387.496,314.667 385.574,317.489 
				382.163,317.505 384.251,320.204 383.212,323.455 386.422,322.303 389.194,324.296 389.091,320.884 			"/>
				<polygon clip-path="url(#SVGID_2_)" fill="#F6E8D7" points="385.53,283.052 382.251,282.096 381.181,278.854 379.26,281.675 
				375.848,281.691 377.935,284.391 376.895,287.643 380.107,286.49 382.88,288.482 382.775,285.071 			"/>
				<polygon clip-path="url(#SVGID_2_)" fill="#F6E8D7" points="390.549,300.63 387.271,299.674 386.2,296.433 384.279,299.254 
				380.866,299.27 382.956,301.969 381.915,305.221 385.129,304.069 387.899,306.061 387.794,302.649 			"/>
				<linearGradient id="SVGID_3_" gradientUnits="userSpaceOnUse" x1="469.9307" y1="271.7078" x2="476.9824" y2="271.7078">
					<stop offset="0.4731" style="stop-color:#F89A1D"/>
					<stop offset="0.6075" style="stop-color:#FFBF6A"/>
				</linearGradient>
				<path clip-path="url(#SVGID_2_)" fill="url(#SVGID_3_)" d="M476.982,272.428h-7.052c0.082-0.048,0.173-0.094,0.254-0.142
				c0.792-0.427,1.617-0.868,2.433-1.298h1.67c0.82,0.431,1.642,0.872,2.436,1.298C476.81,272.333,476.896,272.38,476.982,272.428" />
				<linearGradient id="SVGID_4_" gradientUnits="userSpaceOnUse" x1="465.2725" y1="274.6572" x2="481.6445" y2="274.6572">
					<stop offset="0.4677" style="stop-color:#FBA919"/>
					<stop offset="0.6183" style="stop-color:#C7CF38"/>
				</linearGradient>
				<path clip-path="url(#SVGID_2_)" fill="url(#SVGID_4_)" d="M481.645,275.377h-16.372c0.712-0.519,1.424-1.002,2.117-1.44h12.137
				C480.22,274.381,480.933,274.859,481.645,275.377"/>
				<linearGradient id="SVGID_5_" gradientUnits="userSpaceOnUse" x1="461.7485" y1="277.6108" x2="485.1611" y2="277.6108">
					<stop offset="0.4839" style="stop-color:#C784DB"/>
					<stop offset="0.5753" style="stop-color:#FFDF15"/>
				</linearGradient>
				<path clip-path="url(#SVGID_2_)" fill="url(#SVGID_5_)" d="M485.161,278.331h-23.413c0.512-0.5,1.041-0.983,1.588-1.44h20.24
				C484.115,277.348,484.651,277.827,485.161,278.331"/>
				<linearGradient id="SVGID_6_" gradientUnits="userSpaceOnUse" x1="459.2178" y1="280.5603" x2="487.6982" y2="280.5603">
					<stop offset="0.4839" style="stop-color:#C7CF38"/>
					<stop offset="0.6129" style="stop-color:#FBA919"/>
				</linearGradient>
				<path clip-path="url(#SVGID_2_)" fill="url(#SVGID_6_)" d="M487.698,281.281h-28.48c0.345-0.493,0.717-0.976,1.114-1.441h26.246
				C486.977,280.305,487.351,280.788,487.698,281.281"/>
				<linearGradient id="SVGID_7_" gradientUnits="userSpaceOnUse" x1="457.6021" y1="283.5139" x2="489.3066" y2="283.5139">
					<stop offset="0.4301" style="stop-color:#CCCC33"/>
					<stop offset="0.5538" style="stop-color:#C784DB"/>
				</linearGradient>
				<path clip-path="url(#SVGID_2_)" fill="url(#SVGID_7_)" d="M489.307,284.234h-31.704c0.19-0.491,0.42-0.974,0.678-1.441h30.354
				C488.887,283.261,489.112,283.741,489.307,284.234"/>
				<linearGradient id="SVGID_8_" gradientUnits="userSpaceOnUse" x1="456.8735" y1="286.4641" x2="490.0322" y2="286.4641">
					<stop offset="0.4839" style="stop-color:#C7CF38"/>
					<stop offset="0.6129" style="stop-color:#FBA919"/>
				</linearGradient>
				<path clip-path="url(#SVGID_2_)" fill="url(#SVGID_8_)" d="M490.032,287.184h-33.159c0.049-0.49,0.132-0.968,0.247-1.44h32.667
				C489.904,286.216,489.982,286.694,490.032,287.184"/>
				<linearGradient id="SVGID_9_" gradientUnits="userSpaceOnUse" x1="456.8335" y1="289.4134" x2="490.0723" y2="289.4134">
					<stop offset="0.4677" style="stop-color:#FBA919"/>
					<stop offset="0.6183" style="stop-color:#CCCC33"/>
				</linearGradient>
				<path clip-path="url(#SVGID_2_)" fill="url(#SVGID_9_)" d="M490.072,288.693c-0.021,0.491-0.079,0.969-0.166,1.441h-32.905
				c-0.088-0.472-0.146-0.95-0.168-1.441H490.072z"/>
				<linearGradient id="SVGID_10_" gradientUnits="userSpaceOnUse" x1="457.3989" y1="292.3672" x2="489.5059" y2="292.3672">
					<stop offset="0.4677" style="stop-color:#FBA919"/>
					<stop offset="0.6183" style="stop-color:#C7CF38"/>
				</linearGradient>
				<path clip-path="url(#SVGID_2_)" fill="url(#SVGID_10_)" d="M489.506,291.647c-0.16,0.49-0.363,0.974-0.594,1.44h-30.918
				c-0.23-0.467-0.428-0.95-0.595-1.44H489.506z"/>
				<linearGradient id="SVGID_11_" gradientUnits="userSpaceOnUse" x1="458.8457" y1="295.3179" x2="487.9883" y2="295.3179">
					<stop offset="0.4839" style="stop-color:#C784DB"/>
					<stop offset="0.5753" style="stop-color:#FFDF15"/>
				</linearGradient>
				<path clip-path="url(#SVGID_2_)" fill="url(#SVGID_11_)" d="M487.988,294.716c-0.083,0.122-0.167,0.245-0.251,0.367
				c-0.078,0.118-0.163,0.238-0.251,0.353c-0.147,0.202-0.299,0.403-0.457,0.602h-27.154c-0.368-0.464-0.718-0.947-1.03-1.44
				L487.988,294.716z"/>
				<linearGradient id="SVGID_12_" gradientUnits="userSpaceOnUse" x1="461.2031" y1="298.2708" x2="485.707" y2="298.2708">
					<stop offset="0.4301" style="stop-color:#CCCC33"/>
					<stop offset="0.5538" style="stop-color:#C784DB"/>
				</linearGradient>
				<path clip-path="url(#SVGID_2_)" fill="url(#SVGID_12_)" d="M485.707,297.551c-0.481,0.499-0.982,0.98-1.498,1.44h-21.508
				c-0.516-0.459-1.017-0.94-1.498-1.44H485.707z"/>
				<linearGradient id="SVGID_13_" gradientUnits="userSpaceOnUse" x1="464.5303" y1="301.2205" x2="482.3828" y2="301.2205">
					<stop offset="0.4839" style="stop-color:#C7CF38"/>
					<stop offset="0.6129" style="stop-color:#FBA919"/>
				</linearGradient>
				<path clip-path="url(#SVGID_2_)" fill="url(#SVGID_13_)" d="M482.383,300.5c-0.095,0.072-0.189,0.144-0.28,0.217
				c-0.581,0.431-1.16,0.839-1.729,1.223h-0.006h-13.828c-0.664-0.445-1.341-0.926-2.009-1.44H482.383z"/>
				<linearGradient id="SVGID_14_" gradientUnits="userSpaceOnUse" x1="468.9609" y1="304.174" x2="477.9482" y2="304.174">
					<stop offset="0.4677" style="stop-color:#FBA919"/>
					<stop offset="0.6183" style="stop-color:#C7CF38"/>
				</linearGradient>
				<path clip-path="url(#SVGID_2_)" fill="url(#SVGID_14_)" d="M477.948,303.454c-0.423,0.245-0.835,0.476-1.224,0.689
				c-0.457,0.252-0.929,0.504-1.399,0.752h-3.74c-0.477-0.248-0.942-0.504-1.405-0.752c-0.388-0.213-0.795-0.441-1.219-0.689
				H477.948z"/>
				<linearGradient id="SVGID_15_" gradientUnits="userSpaceOnUse" x1="469.8776" y1="334.0282" x2="480.4065" y2="334.0282">
					<stop offset="0.4677" style="stop-color:#FBA919"/>
					<stop offset="0.6183" style="stop-color:#C7CF38"/>
				</linearGradient>
				<path clip-path="url(#SVGID_2_)" fill="url(#SVGID_15_)" d="M480.407,333.454c-0.495,0.195-0.978,0.38-1.434,0.55
				c-0.535,0.201-1.088,0.402-1.639,0.6h-4.382c-0.559-0.198-1.104-0.402-1.646-0.6c-0.454-0.17-0.932-0.352-1.428-0.55H480.407z"/>
				<path clip-path="url(#SVGID_2_)" fill="#2E3191" d="M471.941,267.835c0.506,0.314,1.015,0.625,1.512,0.946
				c0.491-0.317,0.995-0.622,1.492-0.931c-0.498-0.359-0.997-0.719-1.505-1.067C472.935,267.125,472.44,267.482,471.941,267.835"/>
				<path clip-path="url(#SVGID_2_)" fill="#7D246E" d="M482.249,244.065c0-4.706-3.815-8.521-8.522-8.521
				c-4.705,0-8.522,3.815-8.522,8.521c0,4.707,3.817,8.521,8.522,8.521C478.434,252.587,482.249,248.772,482.249,244.065"/>
				<linearGradient id="SVGID_16_" gradientUnits="userSpaceOnUse" x1="469.9243" y1="310.8176" x2="476.9766" y2="310.8176">
					<stop offset="0.4731" style="stop-color:#F89A1D"/>
					<stop offset="0.6075" style="stop-color:#FFBF6A"/>
				</linearGradient>
				<path clip-path="url(#SVGID_2_)" fill="url(#SVGID_16_)" d="M474.284,310.245h-1.672c-0.814,0.343-1.639,0.693-2.432,1.033
				c-0.083,0.039-0.171,0.075-0.256,0.112h7.052c-0.084-0.037-0.172-0.073-0.255-0.112
				C475.925,310.938,475.104,310.588,474.284,310.245"/>
				<linearGradient id="SVGID_17_" gradientUnits="userSpaceOnUse" x1="461.7427" y1="315.8909" x2="485.1582" y2="315.8909">
					<stop offset="0.4301" style="stop-color:#CCCC33"/>
					<stop offset="0.5538" style="stop-color:#C784DB"/>
				</linearGradient>
				<path clip-path="url(#SVGID_2_)" fill="url(#SVGID_17_)" d="M461.743,316.538h23.416c-0.513-0.453-1.047-0.885-1.587-1.294
				h-20.241C462.785,315.653,462.255,316.088,461.743,316.538"/>
				<path clip-path="url(#SVGID_2_)" fill="#6DBD45" d="M492.766,282.397c-0.965-1.874-2.314-3.619-3.926-5.198
				c-2.433-2.435-13.031-8.771-13.904-9.351c-0.494-0.348-12.119-7.703-14.996-12.183c-1.455-1.832-2.699-3.789-3.55-5.871
				c-0.855-2.079-1.321-4.265-1.305-6.464c-0.012-2.202,0.451-4.386,1.306-6.465c0.85-2.082,2.092-4.041,3.553-5.871
				c2.924-3.675,6.784-6.752,10.936-9.419c0.874-0.553,1.745-1.12,2.605-1.699c-0.517-0.348-1.042-0.678-1.554-1.038
				c-0.708,0.44-1.406,0.895-2.13,1.317c-2.213,1.295-4.335,2.731-6.309,4.333c-1.974,1.597-3.815,3.347-5.427,5.278
				c-1.608,1.932-2.961,4.063-3.924,6.352c-0.963,2.284-1.513,4.746-1.51,7.211c0.001,2.463,0.547,4.925,1.51,7.21
				c0.966,2.287,2.316,4.42,3.927,6.349c1.612,1.931,3.451,3.683,5.427,5.277c1.973,1.602,4.096,3.037,6.31,4.331
				c0.663,0.387,14.238,8.696,17.162,11.702c1.458,1.501,2.701,3.103,3.552,4.808c0.855,1.7,1.32,3.489,1.306,5.29
				c0.013,1.801-0.451,3.591-1.308,5.292c-0.85,1.703-2.091,3.307-3.552,4.805c-2.923,3.007-6.782,5.528-10.935,7.711
				c-0.633,0.328-1.245,0.686-1.866,1.027c-0.01-0.003-0.02-0.009-0.025-0.01c-0.234,0.099-0.679,0.322-0.679,0.322l-1.53,0.62
				c0,0-1.406,0.584-2.132,0.86c-2.215,0.843-4.337,1.779-6.308,2.82c-1.976,1.039-3.818,2.178-5.43,3.435
				c-1.608,1.257-2.958,2.643-3.924,4.134c-0.962,1.486-1.514,3.089-1.51,4.691c0.001,1.605,0.548,3.207,1.51,4.693
				c0.326,0.499,0.708,0.983,1.111,1.459h2.664c-0.59-0.63-1.107-1.276-1.525-1.945c-0.856-1.354-1.321-2.774-1.306-4.208
				c-0.014-1.432,0.45-2.853,1.306-4.206c0.849-1.354,2.093-2.63,3.552-3.82c2.924-2.392,6.785-4.394,10.937-6.129
				c0.861-0.355,2.686-0.906,3.841-1.402c0.006,0,0.011,0.002,0.017,0.002c0.051-0.026,0.103-0.05,0.153-0.077
				c1.074-0.468,1.94-0.864,2.576-1.277c-0.001-0.001-0.01-0.004-0.013-0.004c2.087-1.016,4.098-2.129,5.967-3.371
				c1.976-1.308,3.815-2.741,5.428-4.32c1.606-1.582,2.959-3.326,3.923-5.199c0.964-1.871,1.512-3.886,1.51-5.904
				C494.276,286.282,493.729,284.266,492.766,282.397"/>
				<linearGradient id="SVGID_18_" gradientUnits="userSpaceOnUse" x1="466.0161" y1="313.2368" x2="481.6396" y2="313.2368">
					<stop offset="0.4839" style="stop-color:#C784DB"/>
					<stop offset="0.5753" style="stop-color:#FFDF15"/>
				</linearGradient>
				<path clip-path="url(#SVGID_2_)" fill="url(#SVGID_18_)" d="M466.016,313.884h15.624c-0.68-0.465-1.36-0.896-2.02-1.294h-11.583
				C467.375,312.985,466.696,313.419,466.016,313.884"/>
				<linearGradient id="SVGID_19_" gradientUnits="userSpaceOnUse" x1="459.2134" y1="318.5406" x2="487.6934" y2="318.5406">
					<stop offset="0.4839" style="stop-color:#C7CF38"/>
					<stop offset="0.6129" style="stop-color:#FBA919"/>
				</linearGradient>
				<path clip-path="url(#SVGID_2_)" fill="url(#SVGID_19_)" d="M459.213,319.188h28.48c-0.348-0.444-0.723-0.878-1.12-1.295H460.33
				C459.93,318.31,459.556,318.744,459.213,319.188"/>
				<linearGradient id="SVGID_20_" gradientUnits="userSpaceOnUse" x1="457.0801" y1="326.4937" x2="490.0654" y2="326.4937">
					<stop offset="0.4839" style="stop-color:#C784DB"/>
					<stop offset="0.5753" style="stop-color:#FFDF15"/>
				</linearGradient>
				<path clip-path="url(#SVGID_2_)" fill="url(#SVGID_20_)" d="M457.245,327.142h32.656c0.089-0.423,0.145-0.853,0.164-1.296H457.08
				C457.101,326.289,457.158,326.718,457.245,327.142"/>
				<linearGradient id="SVGID_21_" gradientUnits="userSpaceOnUse" x1="458.875" y1="329.1479" x2="489.501" y2="329.1479">
					<stop offset="0.4301" style="stop-color:#FFDF15"/>
					<stop offset="0.5538" style="stop-color:#C784DB"/>
				</linearGradient>
				<path clip-path="url(#SVGID_2_)" fill="url(#SVGID_21_)" d="M488.935,329.795c0.219-0.421,0.413-0.854,0.566-1.294h-30.626
				c0.161,0.439,0.347,0.873,0.567,1.294H488.935z"/>
				<linearGradient id="SVGID_22_" gradientUnits="userSpaceOnUse" x1="457.5962" y1="321.1938" x2="489.3008" y2="321.1938">
					<stop offset="0.4677" style="stop-color:#FBA919"/>
					<stop offset="0.6183" style="stop-color:#C7CF38"/>
				</linearGradient>
				<path clip-path="url(#SVGID_2_)" fill="url(#SVGID_22_)" d="M457.596,321.841h31.705c-0.19-0.441-0.418-0.875-0.673-1.295
				h-30.353C458.02,320.967,457.789,321.402,457.596,321.841"/>
				<linearGradient id="SVGID_23_" gradientUnits="userSpaceOnUse" x1="456.8687" y1="323.8438" x2="490.0273" y2="323.8438">
					<stop offset="0.4677" style="stop-color:#FBA919"/>
					<stop offset="0.6183" style="stop-color:#C7CF38"/>
				</linearGradient>
				<path clip-path="url(#SVGID_2_)" fill="url(#SVGID_23_)" d="M456.869,324.491h33.159c-0.048-0.44-0.127-0.871-0.244-1.295
				h-32.668C457.001,323.621,456.919,324.051,456.869,324.491"/>
				<linearGradient id="SVGID_24_" gradientUnits="userSpaceOnUse" x1="460.4551" y1="331.6187" x2="484" y2="331.6187">
					<stop offset="0.4839" style="stop-color:#C7CF38"/>
					<stop offset="0.6129" style="stop-color:#FBA919"/>
				</linearGradient>
				<path clip-path="url(#SVGID_2_)" fill="url(#SVGID_24_)" d="M460.573,332.267h23.31c0.064-0.423,0.104-0.853,0.117-1.296h-23.545
				C460.47,331.414,460.511,331.843,460.573,332.267"/>
			</g>
			<g>
				<defs>
					<path id="SVGID_25_" d="M471.931,218.839c0.512,0.359,1.037,0.689,1.554,1.038c0.849,0.57,1.689,1.154,2.546,1.698
					c4.154,2.665,8.012,5.746,10.936,9.419c1.458,1.833,2.701,3.791,3.552,5.872c0.855,2.077,1.32,4.264,1.304,6.462
					c0.013,2.202-0.449,4.387-1.306,6.463c-0.85,2.083-2.092,4.042-3.552,5.872c-2.923,3.673-6.782,6.751-10.935,9.418
					c-0.426,0.269-2.27,1.432-4.143,2.617c-0.005,0-0.02-0.001-0.025-0.001c-0.753,0.5-6.396,3.868-8.37,5.178
					c-1.974,1.306-3.815,2.741-5.427,4.322c-1.608,1.581-2.958,3.325-3.924,5.199c-0.963,1.871-1.513,3.887-1.51,5.904
					c0.001,2.016,0.547,4.033,1.51,5.902c0.966,1.873,2.316,3.62,3.927,5.198c1.612,1.582,3.454,3.014,5.427,4.321
					c1.973,1.31,4.096,2.485,6.31,3.545c0.386,0.185,0.85,0.448,1.604,0.792c0,0-0.003,0.005-0.006,0.005
					c0.05,0.022,3.405,1.293,4.624,1.787c1.217,0.492,8.508,3.842,10.938,6.129c1.456,1.19,2.701,2.465,3.551,3.82
					c0.853,1.352,1.32,2.775,1.305,4.207c0.011,1.431-0.451,2.853-1.307,4.206c-0.42,0.668-0.935,1.317-1.526,1.945h2.666
					c0.405-0.475,0.787-0.958,1.111-1.459c0.962-1.486,1.512-3.089,1.509-4.691c-0.001-1.604-0.547-3.206-1.511-4.692
					c-0.964-1.49-2.313-2.876-3.924-4.131c-1.611-1.257-6.271-4.097-10.537-5.784c-3.279-1.453-6.913-3.026-7.422-3.288
					c-4.154-2.185-8.013-4.706-10.939-7.714c-1.455-1.499-2.701-3.102-3.55-4.806c-0.855-1.702-1.321-3.491-1.305-5.292
					c-0.012-1.802,0.451-3.592,1.305-5.294c0.851-1.704,2.093-3.308,3.552-4.806c3.464-3.233,13.148-9.127,14.814-10.252
					c1.143-0.711,2.092-1.295,2.352-1.449c2.215-1.294,4.337-2.73,6.31-4.332c1.976-1.595,3.815-3.346,5.43-5.277
					c1.605-1.931,2.957-4.062,3.921-6.351c0.964-2.284,1.512-4.746,1.51-7.212c0-2.463-0.546-4.925-1.511-7.209
					c-0.965-2.288-2.314-4.421-3.924-6.349c-1.612-1.932-3.453-3.682-5.428-5.279c-1.973-1.601-4.097-3.035-6.31-4.331
					c-0.724-0.424-1.422-0.876-2.132-1.317c-0.507-0.316-1.025-0.623-1.523-0.943C472.95,218.221,472.438,218.525,471.931,218.839" />
				</defs>
				<linearGradient id="SVGID_26_" gradientUnits="userSpaceOnUse" x1="485.0483" y1="331.322" x2="465.3022" y2="219.3364">
					<stop offset="0.2903" style="stop-color:#EE3B24"/>
					<stop offset="0.3656" style="stop-color:#FFC700"/>
					<stop offset="0.4516" style="stop-color:#F6FF00"/>
					<stop offset="0.5376" style="stop-color:#00BF07"/>
					<stop offset="0.6505" style="stop-color:#003DD4"/>
					<stop offset="0.7742" style="stop-color:#6A337F"/>
					<stop offset="0.871" style="stop-color:#7C3171"/>
				</linearGradient>
				<use xlink:href="#SVGID_25_" overflow="visible" fill="url(#SVGID_26_)"/>
				<clipPath id="SVGID_27_">
					<use xlink:href="#SVGID_25_" overflow="visible"/>
				</clipPath>
				<linearGradient id="SVGID_28_" gradientUnits="userSpaceOnUse" x1="483.6792" y1="332.0266" x2="463.2261" y2="216.031">
					<stop offset="0.2903" style="stop-color:#EE3B24"/>
					<stop offset="0.3656" style="stop-color:#FFC700"/>
					<stop offset="0.4516" style="stop-color:#F6FF00"/>
					<stop offset="0.5376" style="stop-color:#00BF07"/>
					<stop offset="0.6505" style="stop-color:#003DD4"/>
					<stop offset="0.7742" style="stop-color:#6A337F"/>
					<stop offset="0.871" style="stop-color:#7C3171"/>
				</linearGradient>
				<rect x="452.627" y="217.9" clip-path="url(#SVGID_27_)" fill="url(#SVGID_28_)" width="41.651" height="112.258"/>
			</g>
			<g>
				<defs>
					<rect id="SVGID_29_" x="-126.846" y="-34.954" width="1199.533" height="848.155"/>
				</defs>
				<clipPath id="SVGID_30_">
					<use xlink:href="#SVGID_29_" overflow="visible"/>
				</clipPath>
				<path clip-path="url(#SVGID_30_)" fill-rule="evenodd" clip-rule="evenodd" fill="#7D246E" d="M498.952,344.721
				c-2.316,0-4.591-0.539-7.159-1.694c-3.071-1.381-5.818-3.218-8.476-5.244c3.134-1.981,7.264-3.136,11.538-3.136
				c3.381,0,6.472,0.729,8.931,2.109c2.34,1.313,3.261,2.833,2.734,4.516c-0.527,1.689-2.844,3.004-5.905,3.353
				C500.06,344.688,499.501,344.721,498.952,344.721"/>
				<path clip-path="url(#SVGID_30_)" fill-rule="evenodd" clip-rule="evenodd" fill="#7D246E" d="M451.896,346.186
				c-3.509,0-6.71-0.8-9.253-2.317c-0.732-0.437-3.08-2.021-2.482-4.072c0.741-2.546,4.008-3.317,5.379-3.529
				c0.749-0.117,1.502-0.176,2.243-0.176c2.192,0,4.43,0.51,6.844,1.563c3.218,1.403,6.061,3.287,8.793,5.368
				c-3.228,1.999-7.356,3.164-11.522,3.164H451.896z"/>
				<path clip-path="url(#SVGID_30_)" fill-rule="evenodd" clip-rule="evenodd" fill="#7D246E" d="M494.103,353.67
				c-6.594,0-11.708-2.759-16.251-5.741c-0.487-0.318-1.736-1.229-3.319-2.383c-5.306-3.874-14.19-10.357-18.089-12.057
				c-2.997-1.307-5.83-1.941-8.66-1.941c-0.974,0-1.965,0.076-2.942,0.229c-4.713,0.733-8.009,3.192-9.045,6.75
				c-1.001,3.444,0.729,6.988,4.518,9.246c3.242,1.932,7.237,2.952,11.556,2.952c5.262,0,10.417-1.499,14.514-4.22l0.03-0.02
				c0.167,0.138,0.339,0.278,0.506,0.421c-0.066,0.056-0.421,0.356-0.517,0.442c-2.565,2.188-6.178,4.844-11.255,5.848
				c-1.557,0.308-3.138,0.463-4.699,0.463c-4.401,0-8.39-1.251-11.236-3.526c-3.551-2.833-5.21-6.475-4.673-10.253
				c0.918-6.462,7.557-11.745,15.782-12.56c0.874-0.087,1.778-0.131,2.69-0.131c0.261,0,0.522,0.004,0.782,0.009
				c5.511,0.153,9.78,2.37,13.229,4.518c1.883,1.173,3.664,2.4,5.55,3.7l0.233,0.161c0.438,0.309,2.73,1.935,4.856,3.522
				c1.019,0.827,2.072,1.664,3.142,2.475c0.147,0.133,0.285,0.229,0.423,0.318c3.096,2.319,5.879,4.009,8.703,5.277
				c3.132,1.41,6.082,2.094,9.022,2.094c0.718,0,1.451-0.042,2.173-0.125c4.999-0.566,8.639-3.002,9.733-6.512
				c1.183-3.791-0.629-7.468-4.853-9.834c-3.133-1.76-6.989-2.691-11.144-2.691c-5.375,0-10.674,1.562-14.663,4.303l-0.452-0.329
				c0.742-0.637,1.518-1.294,2.319-1.942c3.087-2.498,6.624-4.036,10.814-4.703c1.145-0.181,2.31-0.272,3.464-0.272
				c5.029,0,9.582,1.714,12.49,4.705c4.191,4.309,4.731,10.293,1.316,14.553c-3.474,4.335-8.945,6.972-15.011,7.23
				c-0.35,0.014-0.695,0.022-1.035,0.022H494.103z"/>
				<path clip-path="url(#SVGID_30_)" fill="#6A0D69" d="M440.415,244.648c0,0,10.464-5.497,12.104-0.251
				c0.045,0.141,0.045,0.301,0.002,0.443C450.931,250.102,440.415,244.648,440.415,244.648"/>
				<path clip-path="url(#SVGID_30_)" fill="#6A0D69" d="M444.804,232.859c0,0,9.819-0.796,9.288,3.685
				c-0.015,0.122-0.067,0.243-0.149,0.335C450.954,240.338,444.804,232.859,444.804,232.859"/>
				<path clip-path="url(#SVGID_30_)" fill="#6A0D69" d="M452.754,224.224c0,0,7.691,2.118,5.97,5.274
				c-0.048,0.085-0.122,0.159-0.213,0.206C455.224,231.431,452.754,224.224,452.754,224.224"/>
				<path clip-path="url(#SVGID_30_)" fill="#6A0D69" d="M462.66,215.627c0,0,5.956,5.112,3.008,7.027
				c-0.082,0.051-0.182,0.081-0.284,0.081C461.667,222.767,462.66,215.627,462.66,215.627"/>
				<path clip-path="url(#SVGID_30_)" fill="#6A0D69" d="M473.387,212.347c0,0,2.972,5.53,0.218,6.108
				c-0.072,0.016-0.157,0.009-0.233-0.02C470.588,217.388,473.387,212.347,473.387,212.347"/>
				<path clip-path="url(#SVGID_30_)" fill="#6A0D69" d="M506.381,245.004c0,0-10.463-5.496-12.104-0.25
				c-0.044,0.141-0.044,0.301,0,0.443C495.864,250.458,506.381,245.004,506.381,245.004"/>
				<path clip-path="url(#SVGID_30_)" fill="#6A0D69" d="M501.99,233.216c0,0-9.817-0.797-9.285,3.684
				c0.015,0.122,0.066,0.243,0.147,0.335C495.842,240.694,501.99,233.216,501.99,233.216"/>
				<path clip-path="url(#SVGID_30_)" fill="#6A0D69" d="M494.041,224.58c0,0-7.689,2.118-5.968,5.275
				c0.047,0.086,0.122,0.16,0.212,0.205C491.571,231.787,494.041,224.58,494.041,224.58"/>
				<path clip-path="url(#SVGID_30_)" fill="#6A0D69" d="M484.136,215.984c0,0-5.954,5.112-3.006,7.027
				c0.08,0.051,0.183,0.082,0.283,0.082C485.131,223.124,484.136,215.984,484.136,215.984"/>
			</g>
			<text transform="matrix(1 0 0 1 286.7041 482.7222)">
				<tspan x="0" y="0" fill="#7C246C" font-family="'GoudyOldStyleT-Bold'" font-size="61.2668" letter-spacing="1">HLP</tspan>
				<tspan x="125.304" y="0" fill="#7C246C" font-family="'GoudyOldStyleT-Bold'" font-size="61.2668" letter-spacing="-6"></tspan>
				<tspan x="143.684" y="0" fill="#7C246C" font-family="'GoudyOldStyleT-Bold'" font-size="61.2668">WORLD</tspan>
			</text>
			<g>
				<defs>
					<rect id="SVGID_31_" x="-126.846" y="-34.954" width="1199.533" height="848.155"/>
				</defs>
				<clipPath id="SVGID_32_">
					<use xlink:href="#SVGID_31_" overflow="visible"/>
				</clipPath>

				<line clip-path="url(#SVGID_32_)" fill="none" stroke="#FFFFFF" stroke-width="1.5" stroke-miterlimit="10" x1="594.67" y1="264.289" x2="554.066" y2="271.356"/>
			</g>
			<circle fill="none" cx="473.268" cy="287.552" r="161.359"/>
			<text transform="matrix(-0.5292 -0.8485 0.8485 -0.5292 340.6313 379.8394)">
				<tspan x="0" y="0" fill="#7D246D" font-family="'FranklinGothic-Demi'" font-size="29">E</tspan>
				<tspan x="16.041" y="-0.086" fill="#7D246D" font-family="'FranklinGothic-Demi'" font-size="29" rotate="6.095">N</tspan>
				<tspan x="34.151" y="1.821" fill="#7D246D" font-family="'FranklinGothic-Demi'" font-size="29" rotate="12.571">G</tspan>
				<tspan x="51.837" y="5.722" fill="#7D246D" font-family="'FranklinGothic-Demi'" font-size="29" rotate="19.122">R</tspan>
				<tspan x="69.353" y="11.808" fill="#7D246D" font-family="'FranklinGothic-Demi'" font-size="29" rotate="25.464">A</tspan>
				<tspan x="84.822" y="19.225" fill="#7D246D" font-family="'FranklinGothic-Demi'" font-size="29" rotate="31.023">V</tspan>
				<tspan x="98.253" y="27.295" fill="#7D246D" font-family="'FranklinGothic-Demi'" font-size="29" rotate="36.779">E</tspan>
				<tspan x="111.109" y="37.094" fill="#7D246D" font-family="'FranklinGothic-Demi'" font-size="29" rotate="40.865"></tspan>
				<tspan x="116.474" y="41.405" fill="#7D246D" font-family="'FranklinGothic-Demi'" font-size="29" rotate="45.42">R</tspan>
				<tspan x="129.496" y="54.598" fill="#7D246D" font-family="'FranklinGothic-Demi'" font-size="29" rotate="51.952">O</tspan>
				<tspan x="140.635" y="68.786" fill="#7D246D" font-family="'FranklinGothic-Demi'" font-size="29" rotate="58.388">O</tspan>
				<tspan x="150.028" y="84.208" fill="#7D246D" font-family="'FranklinGothic-Demi'" font-size="29" rotate="64.034">T</tspan>
				<tspan x="156.13" y="96.553" fill="#7D246D" font-family="'FranklinGothic-Demi'" font-size="29" rotate="69.376">S</tspan>
				<tspan x="161.785" y="112.03" fill="#7D246D" font-family="'FranklinGothic-Demi'" font-size="29" rotate="73.504"></tspan>
				<tspan x="163.791" y="118.789" fill="#7D246D" font-family="'FranklinGothic-Demi'" font-size="29" rotate="75.991"></tspan>
				<tspan x="165.501" y="125.628" fill="#7D246D" font-family="'FranklinGothic-Demi'" font-size="29" rotate="78.479"></tspan>
				<tspan x="166.908" y="132.505" fill="#7D246D" font-family="'FranklinGothic-Demi'" font-size="29" rotate="80.956"></tspan>
				<tspan x="168.173" y="139.331" fill="#7D246D" font-family="'FranklinGothic-Demi'" font-size="29" rotate="85.043">E</tspan>
				<tspan x="169.85" y="155.219" fill="#7D246D" font-family="'FranklinGothic-Demi'" font-size="29" rotate="92.183">M</tspan>
				<tspan x="168.768" y="179.495" fill="#7D246D" font-family="'FranklinGothic-Demi'" font-size="29" rotate="99.761">B</tspan>
				<tspan x="165.69" y="197.597" fill="#7D246D" font-family="'FranklinGothic-Demi'" font-size="29" rotate="106.353">R</tspan>
				<tspan x="160.458" y="215.383" fill="#7D246D" font-family="'FranklinGothic-Demi'" font-size="29" rotate="112.714">A</tspan>
				<tspan x="153.882" y="231.199" fill="#7D246D" font-family="'FranklinGothic-Demi'" font-size="29" rotate="118.869">C</tspan>
				<tspan x="145.308" y="246.709" fill="#7D246D" font-family="'FranklinGothic-Demi'" font-size="29" rotate="124.764">E</tspan>
				<tspan x="135.941" y="259.937" fill="#7D246D" font-family="'FranklinGothic-Demi'" font-size="29" rotate="128.847"></tspan>
				<tspan x="131.692" y="265.422" fill="#7D246D" font-family="'FranklinGothic-Demi'" font-size="29" rotate="132.619">L</tspan>
				<tspan x="121.969" y="275.848" fill="#7D246D" font-family="'FranklinGothic-Demi'" font-size="29" rotate="136.604">I</tspan>
				<tspan x="116.218" y="281.498" fill="#7D246D" font-family="'FranklinGothic-Demi'" font-size="29" rotate="140.858">F</tspan>
				<tspan x="104.142" y="291.371" fill="#7D246D" font-family="'FranklinGothic-Demi'" font-size="29" rotate="146.511">E</tspan>
				<tspan x="90.556" y="300.174" fill="#7D246D" font-family="'FranklinGothic-Demi'" font-size="29" rotate="150.627"></tspan>
				<tspan x="84.427" y="303.63" fill="#7D246D" font-family="'FranklinGothic-Demi'" font-size="29" rotate="153.128"></tspan>
				<tspan x="78.14" y="306.82" fill="#7D246D" font-family="'FranklinGothic-Demi'" font-size="29" rotate="155.629"></tspan>
				<tspan x="71.729" y="309.729" fill="#7D246D" font-family="'FranklinGothic-Demi'" font-size="29" rotate="158.121"></tspan>
				<tspan x="65.38" y="312.47" fill="#7D246D" font-family="'FranklinGothic-Demi'" font-size="29" rotate="162.2">E</tspan>
				<tspan x="50.143" y="317.451" fill="#7D246D" font-family="'FranklinGothic-Demi'" font-size="29" rotate="168.243">N</tspan>
				<tspan x="32.236" y="321.096" fill="#7D246D" font-family="'FranklinGothic-Demi'" font-size="29" rotate="173.96">L</tspan>
				<tspan x="18.015" y="322.504" fill="#7D246D" font-family="'FranklinGothic-Demi'" font-size="29" rotate="177.92">I</tspan>
				<tspan x="10.019" y="323.019" fill="#7D246D" font-family="'FranklinGothic-Demi'" font-size="29" rotate="-177.428">G</tspan>
				<tspan x="-8.086" y="322.24" fill="#7D246D" font-family="'FranklinGothic-Demi'" font-size="29" rotate="-170.942">H</tspan>
				<tspan x="-26.171" y="319.263" fill="#7D246D" font-family="'FranklinGothic-Demi'" font-size="29" rotate="-165.214">T</tspan>
				<tspan x="-39.491" y="315.824" fill="#7D246D" font-family="'FranklinGothic-Demi'" font-size="29" rotate="-159.881">E</tspan>
				<tspan x="-54.577" y="310.387" fill="#7D246D" font-family="'FranklinGothic-Demi'" font-size="29" rotate="-153.791">N</tspan>
				<tspan x="-70.967" y="302.085" fill="#7D246D" font-family="'FranklinGothic-Demi'" font-size="29" rotate="-149.352"></tspan>
				<tspan x="-76.993" y="298.706" fill="#7D246D" font-family="'FranklinGothic-Demi'" font-size="29" rotate="-145.406">F</tspan>
				<tspan x="-89.904" y="289.92" fill="#7D246D" font-family="'FranklinGothic-Demi'" font-size="29" rotate="-139.405">U</tspan>
				<tspan x="-103.783" y="277.907" fill="#7D246D" font-family="'FranklinGothic-Demi'" font-size="29" rotate="-133.685">T</tspan>
				<tspan x="-113.367" y="268.074" fill="#7D246D" font-family="'FranklinGothic-Demi'" font-size="29" rotate="-127.948">U</tspan>
				<tspan x="-124.644" y="253.671" fill="#7D246D" font-family="'FranklinGothic-Demi'" font-size="29" rotate="-121.382">R</tspan>
				<tspan x="-134.27" y="237.813" fill="#7D246D" font-family="'FranklinGothic-Demi'" font-size="29" rotate="-115.242">E</tspan>
			</text>
			<circle fill="#7D246D" cx="353" cy="165.001" r="2.701"/>
			<circle fill="#7D246D" cx="565.587" cy="142.088" r="2.701"/>
			<path fill="#6DBD45" d="M478.881,306.242l-1.384-0.807c-1.699,1.143-5.832,2.672-9.752,4.631l0.223,0.935
			c2.121-0.974,7.314-2.925,7.658-3.072c0.224-0.087,0.268-0.089,3.028-1.514"/>
		</g>
	</g>
</svg>
